<svg width="62" height="37" viewBox="0 0 62 37" fill="none" xmlns="http://www.w3.org/2000/svg">
<path d="M0.939338 17.0815C0.353551 17.6672 0.353551 18.617 0.939337 19.2028L10.4853 28.7487C11.0711 29.3345 12.0208 29.3345 12.6066 28.7487C13.1924 28.1629 13.1924 27.2132 12.6066 26.6274L4.12132 18.1421L12.6066 9.65684C13.1924 9.07106 13.1924 8.12131 12.6066 7.53552C12.0208 6.94974 11.0711 6.94974 10.4853 7.53552L0.939338 17.0815ZM62 16.6421L2 16.6421L2 19.6421L62 19.6421L62 16.6421ZM3.85788 22L18 36.1421L20.1213 34.0208L5.9792 19.8787L3.85788 22ZM18 -1.4075e-05L3.85787 14.1421L5.97919 16.2634L20.1213 2.12131L18 -1.4075e-05Z" fill="#373737"/>
</svg>
